<svg width="432" height="196" viewBox="0 0 432 196" fill="none" xmlns="http://www.w3.org/2000/svg">
<path d="M164.16 0C174.482 0 183.747 3.96526 190.08 10.2522C196.413 3.96526 205.678 0 216 0C226.322 0 235.587 3.96526 241.92 10.2522C248.253 3.96526 257.518 0 267.84 0C278.946 0 288.828 4.59022 295.151 11.7236C301.075 7.5468 308.604 5.04706 316.8 5.04706C330.251 5.04706 341.908 11.7809 347.619 21.6114C352.221 19.6233 357.402 18.5063 362.88 18.5063C380.339 18.5063 394.774 29.8501 397.11 44.5849C397.22 44.584 397.33 44.5836 397.44 44.5836C416.527 44.5836 432 58.1419 432 74.8669C432 84.143 427.24 92.445 419.744 98C427.24 103.555 432 111.857 432 121.133C432 137.858 416.527 151.416 397.44 151.416C397.33 151.416 397.22 151.416 397.11 151.415C394.774 166.15 380.339 177.494 362.88 177.494C357.402 177.494 352.221 176.377 347.619 174.389C341.908 184.219 330.251 190.953 316.8 190.953C308.604 190.953 301.075 188.453 295.151 184.276C288.828 191.41 278.946 196 267.84 196C257.518 196 248.253 192.035 241.92 185.748C235.587 192.035 226.322 196 216 196C205.678 196 196.413 192.035 190.08 185.748C183.747 192.035 174.482 196 164.16 196C153.054 196 143.172 191.41 136.849 184.276C130.925 188.453 123.396 190.953 115.2 190.953C101.749 190.953 90.0923 184.219 84.3815 174.389C79.779 176.377 74.5984 177.494 69.12 177.494C51.6613 177.494 37.2262 166.15 34.8905 151.415C34.7804 151.416 34.6703 151.416 34.56 151.416C15.473 151.416 0 137.858 0 121.133C0 111.857 4.75967 103.555 12.2557 98C4.75967 92.445 0 84.143 0 74.8669C0 58.1419 15.473 44.5836 34.56 44.5836C34.6703 44.5836 34.7804 44.584 34.8905 44.5849C37.2262 29.8501 51.6613 18.5063 69.12 18.5063C74.5984 18.5063 79.779 19.6233 84.3815 21.6115C90.0922 11.7809 101.749 5.04706 115.2 5.04706C123.396 5.04706 130.925 7.54679 136.849 11.7236C143.172 4.59021 153.054 0 164.16 0Z" fill="url(#paint0_linear_801_9008)"/>
<defs>
<linearGradient id="paint0_linear_801_9008" x1="216" y1="0" x2="216" y2="196" gradientUnits="userSpaceOnUse">
<stop stop-color="#FFAA00"/>
<stop offset="1" stop-color="#FABD00"/>
</linearGradient>
</defs>
</svg>
