<svg width="272" height="60" viewBox="0 0 272 60" fill="none" xmlns="http://www.w3.org/2000/svg">
<g filter="url(#filter0_d_8946_2654)">
<path d="M264 0L137.712 47.3406C133.141 49.0541 128.101 49.0366 123.542 47.2914L65.3089 25L0 0H264Z" fill="white"/>
</g>
<path fill-rule="evenodd" clip-rule="evenodd" d="M132.824 59.9999C131.106 60.0245 128.325 55.4961 127.379 54.2455C125.999 52.4221 126.009 52.4268 124.588 50.6226C123.535 49.2867 122.3 47.908 121.563 46.3929C121.36 45.9745 120.962 44.8822 120.863 44.6129C120.306 43.1087 119.66 41.3493 120.208 39.7593C120.579 38.6846 122.009 38.4758 123.071 38.49C125.623 38.524 127.796 40.0157 129.232 41.8501C130.019 42.855 130.528 43.9775 131.113 45.0859C131.272 45.3866 131.441 45.6829 131.604 45.9819C131.678 46.1164 131.745 46.2536 131.822 46.3862C131.872 46.4721 131.92 46.5604 131.986 46.6371C132.013 46.6684 132.069 46.7358 132.095 46.7037C132.212 46.5589 132.263 46.3777 132.332 46.2091C132.59 45.5782 132.86 44.6496 133.076 44.0654C133.248 43.6009 133.58 42.8955 133.842 42.4745C134.187 41.9212 134.535 41.3686 134.93 40.8441C135.326 40.3191 135.768 39.8242 136.21 39.3309C136.418 39.098 136.648 38.8815 136.879 38.6673C137.883 37.7376 139.365 36.6713 140.901 37.0961C142.684 37.5895 143.059 39.6697 142.993 41.1283C142.971 41.6272 142.938 42.1269 142.864 42.6217C142.159 47.3305 139.509 51.566 136.73 55.49C136.341 56.0383 133.902 59.9842 132.824 59.9999Z" fill="#FF6262"/>
<defs>
<filter id="filter0_d_8946_2654" x="0" y="0" width="272" height="56.613" filterUnits="userSpaceOnUse" color-interpolation-filters="sRGB">
<feFlood flood-opacity="0" result="BackgroundImageFix"/>
<feColorMatrix in="SourceAlpha" type="matrix" values="0 0 0 0 0 0 0 0 0 0 0 0 0 0 0 0 0 0 127 0" result="hardAlpha"/>
<feOffset dx="4" dy="4"/>
<feGaussianBlur stdDeviation="2"/>
<feComposite in2="hardAlpha" operator="out"/>
<feColorMatrix type="matrix" values="0 0 0 0 0 0 0 0 0 0 0 0 0 0 0 0 0 0 0.05 0"/>
<feBlend mode="normal" in2="BackgroundImageFix" result="effect1_dropShadow_8946_2654"/>
<feBlend mode="normal" in="SourceGraphic" in2="effect1_dropShadow_8946_2654" result="shape"/>
</filter>
</defs>
</svg>
